<svg xmlns="http://www.w3.org/2000/svg" width="479" height="424"><defs><style>.cls-1{fill:none;stroke:#000;stroke-width:1px}.cls-1,.cls-2{fill-rule:evenodd}</style></defs><g id="Artboard_4" data-name="Artboard 4"><g id="balance_copy" data-name="balance copy"><path class="cls-1" d="M1167.43 1387.21c0 15.01-5.97 26.79-37.37 33.03-29.92 6.54-86.7 7.48-158.507 7.78-71.809-.3-128.584-1.24-158.506-7.78-31.4-6.24-37.371-18.02-37.372-33.03s5.969-26.78 37.369-33.02c29.925-6.54 86.7-7.48 158.509-7.78 71.807.3 128.587 1.24 158.507 7.78 31.4 6.24 37.37 18.01 37.37 33.02z" transform="translate(-732 -1004)"/><path class="cls-1" d="M1210.74 1298.84c0 17.62-7.29 31.4-45.61 38.71-36.52 7.67-105.82 8.78-193.462 9.13-87.644-.35-156.937-1.46-193.456-9.13-38.321-7.31-45.612-21.09-45.614-38.71s7.289-31.4 45.61-38.71c36.522-7.67 105.818-8.78 193.46-9.12 87.642.34 156.942 1.45 193.462 9.12 38.32 7.31 45.61 21.09 45.61 38.71z" transform="translate(-732 -1004)"/><path class="cls-1" d="M1081.14 1216.99c0 24.2-32.19 35.11-108.139 34.36-75.951.75-108.139-10.16-108.14-34.36s32.189-35.11 108.14-34.36c75.949-.75 108.139 10.15 108.139 34.36z" transform="translate(-732 -1004)"/><path class="cls-1" d="M1194.81 1135.65c0 17.61-6.84 31.4-42.79 38.71-34.26 7.67-99.27 8.78-181.485 9.13-82.222-.35-147.229-1.46-181.489-9.13-35.949-7.31-42.789-21.1-42.791-38.71s6.837-31.4 42.79-38.71c34.261-7.67 99.269-8.78 181.49-9.13 82.215.35 147.225 1.46 181.485 9.13 35.95 7.31 42.79 21.1 42.79 38.71z" transform="translate(-732 -1004)"/><path class="cls-1" d="M1119.67 1046.56c0 14.52-7.45 26.29-31.92 33.01-23.63 6.96-65.09 8.85-116.08 9.08-50.993-.23-92.452-2.11-116.078-9.08-24.47-6.72-31.924-18.49-31.924-33.01s7.452-26.3 31.923-33.02c23.627-6.96 65.086-8.85 116.079-9.08 50.99.23 92.45 2.12 116.08 9.08 24.47 6.72 31.92 18.49 31.92 33.02z" transform="translate(-732 -1004)"/><path id="radical" class="cls-2" d="M863.53 1155.82a6.928 6.928 0 005.9-3.42l-1.945-2.06c-.944 1.59-2.123 2.42-3.539 2.42-2.063 0-3.007-1.6-3.773-3.66l-2.359-6.07c-1.121-2.95-2.536-5.37-5.012-6.73v-.06c7.842-.47 12.972-4.95 12.972-11.32 0-7.01-5.955-11.73-14.624-11.73h-29.6v41.45h3.479v-17.69h21.7c3.892 0 6.074 2.66 7.489 6.31l2.653 6.78c1.234 3.31 3.121 5.78 6.659 5.78zm-38.565-22.05v-17.4h25.946c6.663 0 11.321 3.54 11.321 8.73 0 5.13-4.658 8.67-11.321 8.67h-25.946zm48.75 20.87h3.715l5.661-10.43h29.779l5.719 10.43h3.656l-22.171-41.45h-4.069zm11.027-13.56l13.209-24.88h.118l13.208 24.88h-26.535zm43.413 13.56h23.293c15.567 0 24.176-7.37 24.176-20.7s-8.609-20.75-24.176-20.75h-23.293v41.45zm3.479-3.12v-35.15h19.814c13.267 0 20.7 6.25 20.7 17.57 0 11.27-7.43 17.58-20.7 17.58h-19.814zm52.648 3.12h3.479v-41.45h-3.479v41.45zm39.368 1.48c12.68 0 22.82-6.55 26.07-16.93l-3.25-1.12c-2.77 9.08-11.67 14.92-22.82 14.92-14.56 0-23.82-7.43-23.82-19.05 0-11.67 8.49-19.04 21.94-19.04 9.73 0 17.63 4.83 20.34 12.5l3.13-1.3c-3.31-8.78-12.45-14.39-23.47-14.39-15.57 0-25.419 8.67-25.419 22.23s10.619 22.18 27.299 22.18zm27.68-1.48h3.71l5.66-10.43h29.78l5.72 10.43h3.66l-22.17-41.45h-4.07zm11.02-13.56l13.21-24.88h.12l13.21 24.88h-26.54zm43.42 13.56h31.72v-3.12h-28.24v-38.33h-3.48v41.45z" transform="translate(-732 -1004)"/><path id="balance" class="cls-2" d="M797.171 1318.32h28.659c9.435 0 15.272-4.43 15.272-11.44 0-5.13-3.243-8.97-8.491-10.03v-.06a9.084 9.084 0 007.312-9.08c0-6.66-5.248-10.85-13.681-10.85h-29.071v41.46zm3.479-23.06v-15.27h25.357c6.486 0 10.437 2.89 10.437 7.66 0 4.72-3.951 7.61-10.378 7.61H800.65zm0 19.93v-16.86h24.885c7.548 0 12.088 3.18 12.088 8.43s-4.54 8.43-12.088 8.43H800.65zm43.361 3.13h3.715l5.661-10.44h29.778l5.72 10.44h3.656l-22.172-41.46H866.3zm11.027-13.57l13.208-24.88h.118l13.209 24.88h-26.535zm43.413 13.57h31.725v-3.13H901.93v-38.33h-3.479v41.46zm36.409 0h3.715l5.661-10.44h29.778l5.72 10.44h3.656l-22.172-41.46h-4.068zm11.027-13.57l13.209-24.88h.118l13.208 24.88h-26.535zm43.413 13.57h3.479v-37.92h.059l35.142 37.92h4.72v-41.46h-3.48v37.98h-.06l-35.142-37.98H989.3v41.46zm79.36 1.47c12.68 0 22.82-6.55 26.06-16.92l-3.24-1.12c-2.77 9.08-11.67 14.91-22.82 14.91-14.56 0-23.82-7.43-23.82-19.04 0-11.68 8.49-19.05 21.93-19.05 9.73 0 17.64 4.84 20.35 12.5l3.12-1.29c-3.3-8.79-12.44-14.39-23.47-14.39-15.56 0-25.41 8.67-25.41 22.23s10.61 22.17 27.3 22.17zm33.22-1.47h40.45v-3.13h-37.03v-16.81h34.08v-3.12h-34.08v-15.21h36.44v-3.19h-39.86v41.46z" transform="translate(-732 -1004)"/></g></g></svg>