<svg xmlns="http://www.w3.org/2000/svg" width="16" height="220" viewBox="0 0 16 220">
  <defs>
    <style>
      .cls-1 {
        fill-rule: evenodd;
      }
    </style>
  </defs>
  <g id="Artboard_3" data-name="Artboard 3">
    <path id="save_your_eyes_energy_copy" data-name="save your eyes &amp; energy copy" class="cls-1" d="M1931.97,1246.95c0.02,2.88,1.79,4.45,3.99,4.44,1.94-.01,3.05-0.96,3.86-3.08l0.79-2.07c0.53-1.4,1.24-2.01,2.4-2.01a2.167,2.167,0,0,1,2.3,2.24c0.01,1.48-1.23,2.49-3.15,2.5l0.37,1.6c2.54-.02,4.27-1.55,4.26-4.11a3.629,3.629,0,0,0-3.83-3.89c-1.88.01-3.01,0.88-3.78,2.88l-0.79,2.11c-0.61,1.5-1.36,2.14-2.48,2.15a2.465,2.465,0,0,1-2.46-2.7c-0.01-1.94,1.46-3.35,3.74-3.37l-0.37-1.65A4.607,4.607,0,0,0,1931.97,1246.95Zm0.4,5.43,0.01,1.68,3.38,0.94,0.03,5.22-3.37.98,0.01,1.68,14.07-4.27-0.01-2.18Zm4.87,3.01,7.77,2.15,0.01,0.04-7.75,2.23Zm-4.79,11.38,0.02,2.18,14.12,3.97-0.01-1.74-12.32-3.3v-0.04l12.28-3.48-0.01-1.76Zm0.05,7.99,0.05,7.4,1.48-.01-0.04-5.78,5.12-.03,0.03,4.78,1.4-.01-0.03-4.78,4.62-.03,0.04,5.58,1.47-.01-0.04-7.2Zm0.11,16.46,0.01,1.68,5.23-.04,8.89,3.87-0.01-1.8-7-2.9v-0.04l6.96-3.04-0.01-1.76-8.84,4Zm-0.29,11.94c0.02,3.56,2.93,5.84,7.45,5.81s7.39-2.35,7.37-5.9-2.94-5.83-7.46-5.8C1935.18,1297.3,1932.3,1299.62,1932.32,1303.16Zm1.48-.01c-0.02-2.52,2.27-4.2,5.89-4.22s5.95,1.63,5.97,4.14c0.01,2.54-2.3,4.2-5.92,4.22S1933.81,1305.69,1933.8,1303.15Zm-1.4,12.56c0.01,2.8,1.72,4.47,4.58,4.46l9.9-.07-0.01-1.66-9.88.07c-1.94.01-3.1-1.04-3.11-2.8-0.02-1.78,1.14-2.87,3.06-2.88l9.9-.06-0.01-1.66-9.9.06C1934.07,1311.19,1932.38,1312.88,1932.4,1315.71Zm0.09,15.19a2.268,2.268,0,0,0,1.13,1.93l0.98-.84a1.076,1.076,0,0,1-.71-0.78c0-.34.32-0.48,0.82-0.58l2.55-.64a2.728,2.728,0,0,0,1.84-1.27h0.02a3.8,3.8,0,0,0,3.71,3.1,4.044,4.044,0,0,0,4.1-4.37l-0.03-4.58-14.1.09,0.01,1.66,6.08-.04,0.01,1.82a2.066,2.066,0,0,1-1.79,1.91l-3.03.8A1.793,1.793,0,0,0,1932.49,1330.9Zm7.88-6.33,5.06-.03,0.02,2.78a2.544,2.544,0,1,1-5.06.03Zm-7.47,13.89,0.04,7.4,1.48-.01-0.03-5.78,5.12-.03,0.02,4.78,1.4-.01-0.03-4.78,4.62-.03,0.04,5.58,1.48-.01-0.05-7.2Zm0.07,12.64,0.01,1.67,5.24-.03,8.89,3.87-0.01-1.8-7-2.9v-0.04l6.96-3.04-0.01-1.76-8.84,3.99Zm0.05,7.34,0.05,7.4,1.48-.01-0.04-5.78,5.12-.03,0.03,4.78,1.4-.01-0.03-4.78,4.62-.02,0.03,5.57,1.48-.01-0.04-7.19Zm-0.28,13.49c0.02,2.88,1.79,4.45,3.99,4.43,1.94-.01,3.05-0.96,3.86-3.08l0.79-2.06c0.53-1.41,1.24-2.01,2.4-2.02a2.175,2.175,0,0,1,2.3,2.25c0.01,1.48-1.23,2.48-3.15,2.5l0.37,1.59c2.54-.01,4.27-1.54,4.26-4.1a3.643,3.643,0,0,0-3.83-3.9c-1.88.01-3.01,0.88-3.78,2.88l-0.78,2.11c-0.61,1.5-1.37,2.15-2.49,2.15a2.465,2.465,0,0,1-2.46-2.7c-0.01-1.94,1.46-3.35,3.74-3.36l-0.37-1.66A4.615,4.615,0,0,0,1932.74,1371.93Zm3.28,18.32a17.367,17.367,0,0,0,2.74,1.2l1.26-1.13a12.448,12.448,0,0,1-2.91-1.12l3.24-2.74c1.12,2.21,2.34,3.17,4.06,3.14a3.055,3.055,0,0,0,3.2-3.22c-0.01-2.06-1.48-3.35-3.7-3.34a5.806,5.806,0,0,0-3.17,1.1,4.307,4.307,0,0,0-4-2.36,3.6,3.6,0,0,0-3.83,3.79,5.179,5.179,0,0,0,1.8,3.75l-1.49,1.26,0.01,2.06Zm10.11-3.88a1.7,1.7,0,0,1-1.89,1.63c-1.06-.02-1.9-0.75-2.81-2.41a4.7,4.7,0,0,1,2.55-.95C1945.26,1384.63,1946.12,1385.29,1946.13,1386.37Zm-11.72-.61a2.281,2.281,0,0,1,2.5-2.34,2.989,2.989,0,0,1,2.71,1.63l-3.84,3.34A3.083,3.083,0,0,1,1934.41,1385.76Zm-1.14,12.51,0.04,7.39,1.48-.01-0.03-5.77,5.11-.04,0.03,4.78,1.4-.01-0.03-4.77,4.62-.03,0.04,5.58,1.48-.01-0.05-7.2Zm0.05,9.29,0.01,1.66,11.94-.08v0.04l-11.91,4.66,0.02,2.46,14.09-.09-0.01-1.68-11.93.07v-0.04l11.91-4.63-0.02-2.46Zm0.07,11.61,0.05,7.4,1.48-.01-0.04-5.77,5.12-.04,0.03,4.78,1.4-.01-0.03-4.77,4.62-.03,0.04,5.58,1.48-.01-0.05-7.2Zm-0.25,17.24a2.3,2.3,0,0,0,1.13,1.93l0.98-.85a1.074,1.074,0,0,1-.71-0.77c0-.34.32-0.48,0.82-0.59l2.55-.63a2.76,2.76,0,0,0,1.84-1.27h0.02a3.807,3.807,0,0,0,3.72,3.09,4.029,4.029,0,0,0,4.09-4.36l-0.03-4.58-14.1.09,0.01,1.66,6.08-.04,0.01,1.82a2.066,2.066,0,0,1-1.79,1.91l-3.03.8A1.786,1.786,0,0,0,1933.14,1436.41Zm7.88-6.33,5.06-.03,0.02,2.78a2.543,2.543,0,1,1-5.06.03Zm-7.83,14.73a4.976,4.976,0,0,0,2.81,4.5v0.02l-2.42.15,0.01,1.42,7.78-.04-0.05-7.2-1.48.01,0.04,5.53c-3.24.02-5.19-1.46-5.21-4.06-0.01-2.7,2.24-4.32,5.9-4.34,3.7-.02,5.94,1.45,5.96,3.92,0.01,1.52-1.12,2.75-2.96,3.28l0.49,1.62a5.067,5.067,0,0,0,3.95-4.88c-0.02-3.56-2.83-5.65-7.45-5.62C1935.96,1439.15,1933.17,1441.27,1933.19,1444.81Zm0.43,10.5,0.01,1.68,5.24-.03,8.88,3.86-0.01-1.8-7-2.89v-0.04l6.96-3.04-0.01-1.76-8.83,3.99Z" transform="translate(-1932 -1242)"/>
  </g>
</svg>
