<svg xmlns="http://www.w3.org/2000/svg" width="479" height="96"><g data-name="Artboard 7"><path d="M478.741 47.84c0 17.62-7.293 31.4-45.614 38.71-36.52 7.67-105.814 8.78-193.459 9.13-87.644-.35-156.937-1.46-193.456-9.13C7.891 79.24.6 65.46.598 47.84s7.288-31.4 45.61-38.71C82.73 1.46 152.026.35 239.668.01c87.645.34 156.94 1.45 193.462 9.12 38.321 7.31 45.612 21.09 45.611 38.71z" fill="none" stroke="#000"/><path d="M65.171 67.32H93.83c9.435 0 15.272-4.43 15.272-11.44 0-5.13-3.243-8.97-8.491-10.03v-.06a9.084 9.084 0 007.312-9.08c0-6.66-5.248-10.85-13.681-10.85H65.171v41.46zm3.479-23.06V28.99h25.357c6.486 0 10.437 2.89 10.437 7.66 0 4.72-3.951 7.61-10.378 7.61H68.65zm0 19.93V47.33h24.885c7.548 0 12.088 3.18 12.088 8.43s-4.54 8.43-12.088 8.43H68.65zm43.361 3.13h3.715l5.661-10.44h29.778l5.72 10.44h3.656l-22.172-41.46H134.3zm11.027-13.57l13.208-24.88h.118l13.209 24.88h-26.535zm43.413 13.57h31.725v-3.13H169.93V25.86h-3.479v41.46zm36.409 0h3.715l5.661-10.44h29.778l5.72 10.44h3.656l-22.172-41.46h-4.068zm11.027-13.57l13.209-24.88h.118l13.208 24.88h-26.535zM257.3 67.32h3.479V29.4h.059l35.145 37.92h4.717V25.86h-3.48v37.98h-.059l-35.144-37.98H257.3v41.46zm79.361 1.47c12.678 0 22.82-6.55 26.064-16.92l-3.244-1.12c-2.771 9.08-11.675 14.91-22.82 14.91-14.565 0-23.823-7.43-23.823-19.04 0-11.68 8.491-19.05 21.936-19.05 9.729 0 17.631 4.84 20.344 12.5l3.125-1.29c-3.3-8.79-12.442-14.39-23.469-14.39-15.568 0-25.415 8.67-25.415 22.23s10.614 22.17 27.302 22.17zm33.217-1.47h40.452v-3.13H373.3V47.38h34.083v-3.12H373.3V29.05h36.44v-3.19h-39.862v41.46z" fill-rule="evenodd"/></g></svg>