<svg xmlns="http://www.w3.org/2000/svg" width="449" height="97"><g data-name="Artboard 5"><path d="M448.811 48.65c0 17.61-6.841 31.4-42.792 38.71-34.26 7.67-99.265 8.78-181.484 9.13-82.222-.35-147.229-1.46-181.489-9.13C7.097 80.05.257 66.26.255 48.65s6.837-31.4 42.79-38.71c34.261-7.67 99.269-8.78 181.49-9.13 82.218.35 147.226 1.46 181.487 9.13 35.952 7.31 42.79 21.1 42.789 38.71z" fill="none" stroke="#000"/><path d="M117.53 68.82a6.928 6.928 0 005.9-3.42l-1.945-2.06c-.944 1.59-2.123 2.42-3.539 2.42-2.063 0-3.007-1.6-3.773-3.66l-2.359-6.07c-1.121-2.95-2.536-5.37-5.012-6.73v-.06c7.842-.47 12.972-4.95 12.972-11.32 0-7.01-5.955-11.73-14.624-11.73h-29.6v41.45h3.479V49.95h21.7c3.892 0 6.074 2.66 7.489 6.31l2.653 6.78c1.234 3.31 3.121 5.78 6.659 5.78zM78.965 46.77v-17.4h25.946c6.663 0 11.321 3.54 11.321 8.73 0 5.13-4.658 8.67-11.321 8.67H78.965zm48.75 20.87h3.715l5.661-10.43h29.779l5.719 10.43h3.656l-22.171-41.45h-4.069zm11.027-13.56l13.209-24.88h.118l13.208 24.88h-26.535zm43.413 13.56h23.293c15.567 0 24.176-7.37 24.176-20.7s-8.609-20.75-24.176-20.75h-23.293v41.45zm3.479-3.12V29.37h19.814c13.267 0 20.7 6.25 20.7 17.57 0 11.27-7.43 17.58-20.7 17.58h-19.814zm52.648 3.12h3.479V26.19h-3.479v41.45zm39.371 1.48c12.678 0 22.821-6.55 26.064-16.93l-3.243-1.12c-2.772 9.08-11.676 14.92-22.821 14.92-14.565 0-23.823-7.43-23.823-19.05 0-11.67 8.492-19.04 21.936-19.04 9.73 0 17.632 4.83 20.344 12.5l3.125-1.3c-3.3-8.78-12.442-14.39-23.469-14.39-15.567 0-25.415 8.67-25.415 22.23s10.614 22.18 27.302 22.18zm27.674-1.48h3.715l5.661-10.43h29.779l5.72 10.43h3.656l-22.172-41.45h-4.069zm11.027-13.56l13.209-24.88h.118l13.209 24.88h-26.536zm43.414 13.56h31.725v-3.12h-28.246V26.19h-3.479v41.45z" fill-rule="evenodd"/></g></svg>