<svg version="1.1" id="Layer_1" xmlns="http://www.w3.org/2000/svg" x="0" y="0" viewBox="0 0 1366 768" xml:space="preserve"><style>.st0{fill:none;stroke:#000;stroke-miterlimit:10}</style><path class="st0" d="M538.11 297.31c.91 6.04-29.71 10.62-31.23 16.63-1.43 5.64 24.25 23.13 20.89 28.58-3.03 4.91-31.11-9.08-35.55-4.43-4.01 4.19 12.04 31.17 6.99 35.06-4.63 3.57-27.06-18.49-32.48-15.24-5.05 3.03 4.16 33.11-1.51 35.8-5.35 2.55-23.06-23.47-28.9-21.26-5.57 2.1-1.52 33.32-7.48 35.07-5.73 1.69-19.32-26.7-25.37-25.37-5.85 1.29-6.21 32.77-12.32 33.69-6.11.92-15.76-29.04-21.73-28.54-6.17.52-10.76 31.65-16.74 31.74-6.21.09-11.57-30.93-17.52-31.29-6.23-.38-15.46 29.7-21.33 28.85-6.21-.9-6.3-32.36-12.02-33.76-6.14-1.5-21.04 26.2-26.52 24.15-5.97-2.23 1.39-32.74-3.68-35.56-5.61-3.12-28.31 18.54-32.65 14.74-4.83-4.22 14.54-28.51 11.51-33.48-3.23-5.29-33.83-.61-34.74-6.65-.91-6.04 29.71-10.62 31.23-16.63 1.43-5.64-24.25-23.13-20.89-28.58 3.03-4.91 31.11 9.08 35.55 4.44 4.01-4.19-12.04-31.17-6.99-35.06 4.63-3.57 27.06 18.49 32.48 15.24 5.05-3.03-4.16-33.11 1.51-35.8 5.35-2.55 23.06 23.47 28.9 21.26 5.57-2.1 1.52-33.32 7.48-35.07 5.73-1.69 19.32 26.7 25.37 25.37 5.85-1.29 6.21-32.77 12.32-33.69 6.11-.92 15.76 29.04 21.73 28.54 6.17-.52 10.76-31.65 16.73-31.74 6.21-.09 11.57 30.93 17.52 31.29 6.23.38 15.46-29.7 21.32-28.85 6.21.9 6.3 32.36 12.02 33.76 6.14 1.5 21.04-26.2 26.52-24.16 5.97 2.22-1.39 32.74 3.68 35.56 5.61 3.12 28.31-18.54 32.65-14.75 4.83 4.22-14.54 28.51-11.51 33.48 3.24 5.3 33.85.63 34.76 6.66z"/><path class="st0" d="M396.18 230.87c-61.36-59.57-128.65-115.75-147.04-97.78-17.92 17.51 23.92 80.11 71.33 129.57m-33.01-11.7c-60.82-39.29-132.48-80.04-146.45-64.07-15.72 17.97 39.48 70.02 92.76 113.52m280.51 41.07c-1.1 4.81-2.09 9.58-2.96 14.28a312.89 312.89 0 00-13.82-18.49m26.93-31.99c-2.52 7.55-4.78 15.12-6.78 22.61m73.1 199.2c54.94-57.79 34.15-204.47 24.97-264.39 62.15-59.74 67.44-115.12 15.19-96.47-46.2 16.49-81.53 70.64-102.53 127.77m-281.42 35.42c-59.88-28.24-137.56-59.71-157.94-43.94-34.84 26.95 194.85 142.86 194.85 142.86S128 359.53 106.78 382.46c-22.14 23.93 53.23 70.75 165.4 104.07 2.38 20.65 86.24 103.81 151.51 117.92"/><path d="M278.64 338.17l-1.08-7.79 1.55-.22 1.06 7.65c.49 3.56 3.27 5.3 7.45 4.72 5.31-.74 8.05-3.99 7.39-8.74l-.79-5.73 1.55-.22 1.97 14.2-1.44.2-.71-4.1h-.03c-.78 3.1-3.73 5.29-7.93 5.88-5.03.7-8.38-1.48-8.99-5.85zm21.65-3.7c-.63-4.55 2.92-8.23 8.51-9.01 4.26-.59 8.02.79 9.57 3.42l-1.37.74c-1.28-2.15-4.34-3.26-7.87-2.77-4.77.66-7.8 3.7-7.29 7.4.48 3.7 4.54 5.76 9.39 5.09 4.24-.59 7.67-3.19 8.31-6.3l1.57.33c-.88 3.66-4.89 6.69-9.86 7.38-5.69.79-10.33-1.76-10.96-6.28zm22.93 2.18l14.47-13.11-15.7 2.17-.2-1.47 17.73-2.46.26 1.86-14.5 13.12 16.29-2.26.2 1.44-18.29 2.53-.26-1.82zm19.32-8.03c-.63-4.55 2.92-8.23 8.51-9.01 4.26-.59 8.02.79 9.57 3.42l-1.37.74c-1.28-2.15-4.34-3.25-7.86-2.77-4.77.66-7.8 3.7-7.29 7.4.49 3.7 4.54 5.76 9.4 5.09 4.23-.59 7.67-3.19 8.31-6.3l1.57.33c-.87 3.66-4.89 6.69-9.85 7.38-5.72.79-10.36-1.76-10.99-6.28zm21.64-14.48c-.1-.73.34-1.31 1.07-1.41.76-.11 1.34.33 1.44 1.07.1.73-.34 1.31-1.1 1.42-.73.09-1.3-.35-1.41-1.08zm1.06 4.08l1.55-.22 1.97 14.2-1.55.22-1.97-14.2zm4.33-.6l1.72-.24 8.88 11.78h.03l5.01-13.7 2.09-.29 8.63 11.84h.03l5.2-13.76 1.69-.23-5.66 15.26-2.06.29-8.69-11.86h-.03l-5.03 13.76-2.06.29-9.75-13.14zm35.56 2.33c-.64-4.63 3.03-8.25 9.24-9.11 6.24-.86 10.73 1.62 11.37 6.25.64 4.63-3.01 8.21-9.25 9.08-6.21.86-10.72-1.59-11.36-6.22zm19.06-2.64c-.52-3.76-4.33-5.73-9.61-5-5.28.73-8.41 3.67-7.89 7.42.52 3.75 4.33 5.73 9.61 5 5.27-.73 8.41-3.67 7.89-7.42zm4.78 1.64l1.26-.87c1.05 2.59 4.68 4.07 9.06 3.46 3.56-.49 6.1-2.08 5.83-3.83-.2-1.41-1.97-1.94-5.26-1.86l-3.76.15c-3.72.11-6.1-.59-6.41-2.85-.34-2.66 2.28-4.75 6.2-5.29 3.47-.48 6.88.66 8.28 2.68l-1.13.99c-1.19-1.71-4.02-2.67-6.96-2.26-2.99.41-5.06 1.91-4.86 3.55.19 1.36 1.74 1.74 4.84 1.69l3.84-.13c3.93-.08 6.41.55 6.75 3.01.41 2.76-2.65 4.97-7.11 5.59-5 .69-9.33-1.04-10.57-4.03zm6.11-13.86l5.2-4.63.68.74-5.26 4.64-.62-.75zm14.11 8.75c-.63-4.55 2.92-8.23 8.51-9.01 4.26-.59 8.02.79 9.57 3.42l-1.37.74c-1.28-2.15-4.34-3.26-7.87-2.77-4.77.66-7.8 3.7-7.29 7.4.48 3.7 4.54 5.76 9.4 5.09 4.23-.59 7.67-3.19 8.31-6.3l1.57.33c-.87 3.66-4.89 6.69-9.86 7.38-5.7.79-10.34-1.76-10.97-6.28zm7.47-11.74l5.2-4.63.68.74-5.26 4.64-.62-.75z"/></svg>