<svg xmlns="http://www.w3.org/2000/svg" viewBox="0 0 625.45 134.51"><path d="M244.59 38c-27.9.11-52.01.42-64.49 3.06-5.9 1.13-9.87 2.79-12.15 5.06-1.84 1.84-2.66 4.13-2.66 7.43s.82 5.59 2.66 7.43c2.28 2.28 6.25 3.93 12.14 5.06 12.49 2.64 36.6 2.95 64.51 3.06 27.9-.11 52.01-.42 64.49-3.06 5.9-1.13 9.87-2.79 12.15-5.06 1.84-1.84 2.66-4.13 2.66-7.43s-.82-5.59-2.66-7.43c-2.28-2.28-6.25-3.93-12.14-5.06-12.49-2.64-36.61-2.94-64.51-3.06m0 32.18c-27.97-.11-52.14-.42-64.72-3.08-6.1-1.17-10.25-2.92-12.68-5.35-2.06-2.05-2.97-4.58-2.97-8.18 0-3.61.92-6.13 2.97-8.18 2.43-2.43 6.58-4.18 12.69-5.35 12.57-2.66 36.74-2.97 64.7-3.08 27.97.11 52.14.42 64.72 3.08 6.1 1.17 10.25 2.92 12.68 5.35 2.06 2.05 2.97 4.58 2.97 8.18 0 3.61-.92 6.13-2.97 8.18-2.43 2.43-6.58 4.18-12.69 5.35-12.56 2.66-36.73 2.96-64.7 3.08"/><path d="M185.93 45.88h1.92l7.93 13.63h.02l7.93-13.63h1.92v14.83h-1.24V47.19h-.04l-7.87 13.52h-1.43l-7.85-13.52h-.04v13.52h-1.25zm23.94 0h1.24v14.83h-1.24zm5.46 0h1.69l12.57 13.58h.02V45.88h1.25v14.83h-1.69L216.6 47.15h-.02v13.56h-1.25zm19.74 0h1.24v14.83h-1.24zm5.47 0h1.91l7.94 13.63h.02l7.93-13.63h1.92v14.83h-1.25V47.19h-.04l-7.87 13.52h-1.43l-7.85-13.52h-.04v13.52h-1.24zm23.42 8.38v-8.37h1.24v8.37c0 3.78 2.57 5.82 6.71 5.82 4.13 0 6.69-2.05 6.69-5.82v-8.37h1.24v8.37c0 4.45-3.06 6.98-7.93 6.98-4.89 0-7.95-2.53-7.95-6.98m19.57-8.38h1.92l7.93 13.63h.02l7.93-13.63h1.92v14.83h-1.24V47.19h-.05l-7.86 13.52h-1.44l-7.84-13.52h-.05v13.52h-1.24zM392.56 38c-23.8.11-44.37.42-55 3.05-5.01 1.13-8.39 2.78-10.32 5.04-1.57 1.84-2.28 4.15-2.28 7.46 0 3.32.7 5.62 2.28 7.46 1.93 2.26 5.3 3.91 10.31 5.04 10.65 2.64 31.22 2.94 55.02 3.06 23.8-.11 44.37-.42 55-3.05 5.01-1.13 8.39-2.78 10.32-5.04 1.57-1.84 2.28-4.15 2.28-7.46 0-3.32-.7-5.62-2.28-7.46-1.93-2.26-5.3-3.91-10.31-5.04-10.65-2.64-31.22-2.94-55.02-3.06m0 32.18c-23.88-.11-44.51-.42-55.26-3.09-5.22-1.17-8.78-2.94-10.87-5.38-1.75-2.05-2.53-4.56-2.53-8.15 0-3.59.78-6.1 2.53-8.15 2.09-2.44 5.65-4.21 10.88-5.38 10.74-2.66 31.37-2.97 55.25-3.08 23.88.11 44.51.42 55.26 3.08 5.22 1.18 8.78 2.94 10.87 5.38 1.75 2.05 2.53 4.56 2.53 8.15s-.78 6.1-2.53 8.15c-2.09 2.44-5.65 4.21-10.88 5.38-10.74 2.66-31.37 2.97-55.25 3.09"/><path d="M343.19 56.46l1.05-.63c.7 2.72 3.9 4.54 7.93 4.54 3.52 0 5.82-1.33 5.82-3.25 0-1.5-1.35-2.4-4.51-2.91l-4.24-.7c-3.35-.53-4.79-1.56-4.79-3.59 0-2.64 2.55-4.3 6.29-4.3 3.27 0 6.03 1.39 7.11 3.46l-.99.7c-.95-1.79-3.31-3.02-6.12-3.02-3.02 0-5.04 1.24-5.04 3.1 0 1.33 1.12 2.09 3.78 2.49l4.18.67c3.9.61 5.59 1.81 5.59 3.97 0 2.74-2.83 4.51-7.11 4.51-4.5 0-8-2.02-8.95-5.04m23.16-9.18h-7.22v-1.13h15.69v1.13h-7.23v13.69h-1.24zm10.31 7.24v-8.37h1.24v8.37c0 3.78 2.57 5.82 6.71 5.82 4.13 0 6.69-2.05 6.69-5.82v-8.37h1.24v8.37c0 4.45-3.06 6.98-7.93 6.98-4.89 0-7.95-2.53-7.95-6.98m27.91 5.34c4.75 0 7.4-2.26 7.4-6.29 0-4.05-2.66-6.29-7.4-6.29h-7.09v12.57h7.09zm-8.33-13.71h8.33c5.57 0 8.65 2.66 8.65 7.42s-3.08 7.4-8.65 7.4h-8.33V46.15zm20 0h1.24v14.83h-1.24zm22.89 7.42c0-4.05-3.54-6.81-8.77-6.81-5.23 0-8.77 2.76-8.77 6.81s3.54 6.81 8.77 6.81c5.23 0 8.77-2.76 8.77-6.81m-18.79 0c0-4.72 4.05-7.95 10.02-7.95 5.99 0 10.02 3.23 10.02 7.95s-4.03 7.93-10.02 7.93c-5.97 0-10.02-3.21-10.02-7.93"/></svg>